<?xml version="1.0" encoding="UTF-8"?>
<svg xmlns="http://www.w3.org/2000/svg" xmlns:xlink="http://www.w3.org/1999/xlink" 
    width="1300px" height="700px" viewBox="-5 -16 130 70" version="1.1">
<title>Golomb Ruler - Order 4</title>
<defs>
    <marker id="a1" viewBox="0 0 10 10" refX="2" refY="5"
		markerUnits="strokeWidth" orient="auto"
		markerWidth="5" markerHeight="5">
		<path d="M0,5 l10,-5 a2,5 0 0,0 0,10z" style="fill:black" />
	</marker>
	<marker id="a2" viewBox="0 0 10 10" refX="8" refY="5"
		markerUnits="strokeWidth" orient="auto"
		markerWidth="5" markerHeight="5">
		<path d="M10,5 l-10,-5 a2,5 0 0,1 0,10z" style="fill:black" />
	</marker>
</defs>
<g  stroke="black" fill="none" stroke-width="1">
    <path d="M0,-5 v5 h120 v-5 M20,0 v-5 M80,0 v-5"/>
    <g marker-start="url(#a1)" marker-end="url(#a2)" stroke-width=".7">
        <path d="M1,12 h18"/>  <path d="M81,12 h38"/>   <path d="M21,22 h58"/>
        <path d="M1,32 h78"/>  <path d="M21,42 h98"/>   <path d="M1,52 h118"/>
    </g>
</g>
<text font-size="11" fill="black" font-family="serif" stroke="none" text-anchor="middle">
    <tspan x="0" y="-7">0</tspan><tspan x="20">1</tspan><tspan x="80">4</tspan><tspan x="120">6</tspan>
</text>
<text font-size="8" fill="black" font-family="serif" stroke="none" text-anchor="middle" background-color="white">
    <tspan x="10" y="10">1</tspan>  <tspan x="100" y="10">2</tspan> <tspan x="50" y="20">3</tspan>
    <tspan x="40" y="30">4</tspan>  <tspan x="70" y="40">5</tspan>  <tspan x="60" y="50">6</tspan>
</text>
</svg>
